<svg xmlns="http://www.w3.org/2000/svg" xmlns:xlink="http://www.w3.org/1999/xlink" width="277" zoomAndPan="magnify" viewBox="0 0 207.75 38.999999" height="52" preserveAspectRatio="xMidYMid meet" version="1.0"><path fill="#00346a" d="M 0.171875 27.75 L 0.171875 6.636719 L 3.503906 6.636719 L 3.503906 17.503906 L 13.4375 6.605469 L 17.125 6.605469 L 8.796875 15.957031 L 17.597656 27.75 L 13.824219 27.75 L 6.6875 18.070312 L 3.503906 21.375 L 3.503906 27.75 Z M 0.171875 27.75 " fill-opacity="1" fill-rule="nonzero"/><path fill="#00346a" d="M 18.191406 23.242188 C 18.191406 22.261719 18.476562 21.402344 19.039062 20.664062 C 19.605469 19.925781 20.382812 19.359375 21.375 18.953125 C 22.367188 18.554688 23.515625 18.351562 24.824219 18.351562 C 25.519531 18.351562 26.226562 18.402344 26.949219 18.5 C 27.675781 18.597656 28.3125 18.757812 28.867188 18.976562 L 28.867188 18 C 28.867188 16.925781 28.542969 16.085938 27.886719 15.480469 C 27.234375 14.878906 26.292969 14.574219 25.0625 14.574219 C 24.191406 14.574219 23.367188 14.730469 22.59375 15.035156 C 21.820312 15.34375 21 15.773438 20.128906 16.328125 L 19.027344 14.128906 C 20.058594 13.433594 21.09375 12.917969 22.132812 12.582031 C 23.175781 12.246094 24.269531 12.078125 25.421875 12.078125 C 27.503906 12.078125 29.144531 12.621094 30.34375 13.707031 C 31.542969 14.796875 32.140625 16.339844 32.140625 18.339844 L 32.140625 24.074219 C 32.140625 24.445312 32.207031 24.710938 32.335938 24.867188 C 32.464844 25.023438 32.6875 25.113281 33.003906 25.132812 L 33.003906 27.75 C 32.707031 27.808594 32.4375 27.847656 32.199219 27.867188 C 31.960938 27.886719 31.765625 27.898438 31.605469 27.898438 C 30.914062 27.898438 30.386719 27.730469 30.03125 27.390625 C 29.671875 27.054688 29.464844 26.660156 29.40625 26.203125 L 29.316406 25.308594 C 28.640625 26.183594 27.78125 26.855469 26.730469 27.332031 C 25.679688 27.808594 24.617188 28.046875 23.546875 28.046875 C 22.476562 28.046875 21.59375 27.835938 20.78125 27.414062 C 19.96875 26.988281 19.335938 26.414062 18.878906 25.6875 C 18.421875 24.960938 18.195312 24.148438 18.195312 23.242188 Z M 28.097656 24.175781 C 28.332031 23.921875 28.523438 23.667969 28.660156 23.414062 C 28.800781 23.160156 28.867188 22.9375 28.867188 22.742188 L 28.867188 20.988281 C 28.3125 20.773438 27.726562 20.613281 27.113281 20.503906 C 26.5 20.398438 25.894531 20.34375 25.300781 20.34375 C 24.109375 20.34375 23.144531 20.578125 22.402344 21.046875 C 21.65625 21.515625 21.285156 22.15625 21.285156 22.976562 C 21.285156 23.425781 21.410156 23.855469 21.65625 24.261719 C 21.90625 24.671875 22.261719 25.003906 22.726562 25.257812 C 23.191406 25.511719 23.773438 25.636719 24.46875 25.636719 C 25.164062 25.636719 25.867188 25.5 26.519531 25.230469 C 27.171875 24.957031 27.699219 24.605469 28.097656 24.175781 Z M 28.097656 24.175781 " fill-opacity="1" fill-rule="nonzero"/><path fill="#00346a" d="M 50.042969 27.75 L 46.769531 27.75 L 46.769531 19.136719 C 46.769531 17.707031 46.539062 16.65625 46.074219 15.992188 C 45.605469 15.324219 44.917969 14.992188 44.003906 14.992188 C 43.371094 14.992188 42.742188 15.148438 42.117188 15.460938 C 41.492188 15.773438 40.933594 16.195312 40.4375 16.730469 C 39.941406 17.265625 39.585938 17.886719 39.367188 18.589844 L 39.367188 27.75 L 36.09375 27.75 L 36.09375 12.316406 L 39.066406 12.316406 L 39.066406 15.4375 C 39.464844 14.75 39.984375 14.15625 40.628906 13.65625 C 41.273438 13.152344 42.003906 12.765625 42.816406 12.492188 C 43.628906 12.214844 44.488281 12.078125 45.402344 12.078125 C 46.3125 12.078125 47.101562 12.246094 47.707031 12.578125 C 48.3125 12.914062 48.785156 13.371094 49.132812 13.949219 C 49.480469 14.527344 49.71875 15.195312 49.847656 15.953125 C 49.976562 16.707031 50.039062 17.507812 50.039062 18.355469 L 50.039062 27.75 Z M 50.042969 27.75 " fill-opacity="1" fill-rule="nonzero"/><path fill="#00346a" d="M 52.71875 25.695312 L 61.9375 14.632812 L 53.046875 14.632812 L 53.046875 12.316406 L 65.503906 12.316406 L 65.503906 14.367188 L 56.347656 25.429688 L 65.597656 25.429688 L 65.597656 27.75 L 52.71875 27.75 Z M 52.71875 25.695312 " fill-opacity="1" fill-rule="nonzero"/><path fill="#00346a" d="M 68.539062 6.039062 L 71.808594 6.039062 L 71.808594 23.3125 C 71.808594 24.105469 71.929688 24.613281 72.167969 24.832031 C 72.40625 25.050781 72.703125 25.160156 73.058594 25.160156 C 73.453125 25.160156 73.828125 25.121094 74.175781 25.042969 C 74.519531 24.964844 74.824219 24.863281 75.082031 24.746094 L 75.554688 27.332031 C 75.082031 27.53125 74.515625 27.699219 73.859375 27.835938 C 73.207031 27.976562 72.621094 28.046875 72.105469 28.046875 C 70.996094 28.046875 70.125 27.730469 69.488281 27.105469 C 68.855469 26.480469 68.539062 25.609375 68.539062 24.496094 Z M 68.539062 6.039062 " fill-opacity="1" fill-rule="nonzero"/><path fill="#00346a" d="M 84.507812 28.046875 C 83.296875 28.046875 82.203125 27.835938 81.222656 27.410156 C 80.238281 26.988281 79.390625 26.40625 78.679688 25.667969 C 77.964844 24.933594 77.414062 24.085938 77.027344 23.132812 C 76.640625 22.175781 76.449219 21.160156 76.449219 20.074219 C 76.449219 18.625 76.785156 17.296875 77.460938 16.089844 C 78.132812 14.886719 79.074219 13.914062 80.285156 13.179688 C 81.492188 12.445312 82.910156 12.078125 84.535156 12.078125 C 86.164062 12.078125 87.566406 12.445312 88.746094 13.179688 C 89.925781 13.917969 90.839844 14.882812 91.496094 16.082031 C 92.148438 17.277344 92.476562 18.566406 92.476562 19.941406 C 92.476562 20.175781 92.464844 20.398438 92.445312 20.601562 C 92.425781 20.808594 92.40625 20.980469 92.386719 21.117188 L 79.925781 21.117188 C 79.988281 22.015625 80.238281 22.804688 80.683594 23.480469 C 81.132812 24.15625 81.699219 24.683594 82.394531 25.066406 C 83.089844 25.445312 83.832031 25.636719 84.625 25.636719 C 85.5 25.636719 86.324219 25.421875 87.109375 24.984375 C 87.890625 24.546875 88.421875 23.972656 88.699219 23.257812 L 91.496094 24.0625 C 91.15625 24.8125 90.648438 25.492188 89.964844 26.097656 C 89.28125 26.703125 88.472656 27.179688 87.539062 27.527344 C 86.605469 27.871094 85.597656 28.046875 84.507812 28.046875 Z M 79.839844 18.945312 L 89.234375 18.945312 C 89.175781 18.074219 88.921875 17.300781 88.476562 16.628906 C 88.03125 15.957031 87.46875 15.433594 86.78125 15.054688 C 86.097656 14.675781 85.339844 14.484375 84.507812 14.484375 C 83.675781 14.484375 82.945312 14.675781 82.261719 15.054688 C 81.578125 15.433594 81.019531 15.957031 80.582031 16.628906 C 80.144531 17.300781 79.898438 18.074219 79.839844 18.945312 Z M 79.839844 18.945312 " fill-opacity="1" fill-rule="nonzero"/><path fill="#00346a" d="M 95.152344 9.636719 L 95.152344 6.039062 L 98.425781 6.039062 L 98.425781 9.636719 Z M 95.152344 27.75 L 95.152344 12.195312 L 98.425781 12.195312 L 98.425781 27.75 Z M 95.152344 27.75 " fill-opacity="1" fill-rule="nonzero"/><path fill="#00346a" d="M 107.878906 28.046875 C 106.570312 28.046875 105.332031 27.832031 104.164062 27.40625 C 102.992188 26.980469 101.992188 26.339844 101.160156 25.488281 L 102.378906 23.289062 C 103.269531 24.082031 104.167969 24.65625 105.070312 25.011719 C 105.972656 25.371094 106.871094 25.546875 107.761719 25.546875 C 108.652344 25.546875 109.417969 25.378906 109.992188 25.039062 C 110.566406 24.699219 110.855469 24.199219 110.855469 23.539062 C 110.855469 23.046875 110.707031 22.683594 110.40625 22.449219 C 110.109375 22.210938 109.679688 22.007812 109.113281 21.828125 C 108.550781 21.652344 107.871094 21.457031 107.078125 21.238281 C 105.964844 20.90625 105.035156 20.558594 104.28125 20.195312 C 103.527344 19.832031 102.960938 19.382812 102.585938 18.855469 C 102.210938 18.324219 102.023438 17.644531 102.023438 16.820312 C 102.023438 15.820312 102.277344 14.964844 102.792969 14.257812 C 103.308594 13.550781 104.027344 13.011719 104.949219 12.636719 C 105.871094 12.265625 106.9375 12.078125 108.148438 12.078125 C 109.277344 12.078125 110.324219 12.25 111.285156 12.597656 C 112.246094 12.945312 113.09375 13.484375 113.828125 14.21875 L 112.429688 16.390625 C 111.734375 15.753906 111.027344 15.289062 110.304688 14.992188 C 109.578125 14.695312 108.800781 14.546875 107.96875 14.546875 C 107.492188 14.546875 107.035156 14.597656 106.601562 14.707031 C 106.164062 14.816406 105.800781 15.011719 105.515625 15.296875 C 105.226562 15.578125 105.085938 15.976562 105.085938 16.488281 C 105.085938 16.898438 105.203125 17.230469 105.441406 17.488281 C 105.679688 17.742188 106.035156 17.957031 106.511719 18.132812 C 106.988281 18.3125 107.570312 18.507812 108.265625 18.722656 C 109.476562 19.074219 110.507812 19.425781 111.359375 19.765625 C 112.210938 20.109375 112.871094 20.550781 113.335938 21.089844 C 113.800781 21.628906 114.035156 22.371094 114.035156 23.3125 C 114.035156 24.800781 113.472656 25.964844 112.355469 26.796875 C 111.234375 27.628906 109.742188 28.046875 107.878906 28.046875 Z M 107.878906 28.046875 " fill-opacity="1" fill-rule="nonzero"/><path fill="#00346a" d="M 125.574219 27.003906 C 125.296875 27.144531 124.949219 27.292969 124.535156 27.453125 C 124.117188 27.609375 123.644531 27.75 123.121094 27.867188 C 122.59375 27.988281 122.054688 28.046875 121.5 28.046875 C 120.824219 28.046875 120.199219 27.925781 119.625 27.691406 C 119.050781 27.453125 118.589844 27.074219 118.242188 26.550781 C 117.894531 26.027344 117.722656 25.351562 117.722656 24.523438 L 117.722656 14.84375 L 115.671875 14.84375 L 115.671875 12.3125 L 117.722656 12.3125 L 117.722656 7.199219 L 120.996094 7.199219 L 120.996094 12.3125 L 124.382812 12.3125 L 124.382812 14.84375 L 120.996094 14.84375 L 120.996094 23.476562 C 121.035156 24.007812 121.207031 24.402344 121.515625 24.65625 C 121.820312 24.914062 122.203125 25.042969 122.660156 25.042969 C 123.117188 25.042969 123.550781 24.964844 123.96875 24.804688 C 124.382812 24.644531 124.691406 24.515625 124.890625 24.417969 Z M 125.574219 27.003906 " fill-opacity="1" fill-rule="nonzero"/><path fill="#00346a" d="M 134.675781 28.046875 C 133.464844 28.046875 132.371094 27.835938 131.386719 27.410156 C 130.40625 26.988281 129.558594 26.40625 128.84375 25.667969 C 128.132812 24.933594 127.582031 24.085938 127.195312 23.132812 C 126.808594 22.175781 126.613281 21.160156 126.613281 20.074219 C 126.613281 18.625 126.953125 17.296875 127.625 16.089844 C 128.300781 14.886719 129.242188 13.914062 130.449219 13.179688 C 131.660156 12.445312 133.078125 12.078125 134.703125 12.078125 C 136.328125 12.078125 137.730469 12.445312 138.910156 13.179688 C 140.089844 13.917969 141.007812 14.882812 141.660156 16.082031 C 142.316406 17.277344 142.644531 18.566406 142.644531 19.941406 C 142.644531 20.175781 142.632812 20.398438 142.613281 20.601562 C 142.59375 20.808594 142.574219 20.980469 142.554688 21.117188 L 130.09375 21.117188 C 130.152344 22.015625 130.40625 22.804688 130.851562 23.480469 C 131.296875 24.15625 131.867188 24.683594 132.5625 25.066406 C 133.253906 25.445312 134 25.636719 134.792969 25.636719 C 135.664062 25.636719 136.492188 25.421875 137.273438 24.984375 C 138.058594 24.546875 138.589844 23.972656 138.867188 23.257812 L 141.660156 24.0625 C 141.324219 24.8125 140.8125 25.492188 140.128906 26.097656 C 139.445312 26.703125 138.636719 27.179688 137.707031 27.527344 C 136.773438 27.871094 135.761719 28.046875 134.671875 28.046875 Z M 130.003906 18.945312 L 139.402344 18.945312 C 139.34375 18.074219 139.089844 17.300781 138.644531 16.628906 C 138.199219 15.957031 137.632812 15.433594 136.949219 15.054688 C 136.265625 14.675781 135.507812 14.484375 134.675781 14.484375 C 133.84375 14.484375 133.113281 14.675781 132.429688 15.054688 C 131.746094 15.433594 131.183594 15.957031 130.75 16.628906 C 130.3125 17.300781 130.066406 18.074219 130.007812 18.945312 Z M 130.003906 18.945312 " fill-opacity="1" fill-rule="nonzero"/><path fill="#00346a" d="M 145.351562 6.039062 L 148.621094 6.039062 L 148.621094 23.3125 C 148.621094 24.105469 148.738281 24.613281 148.976562 24.832031 C 149.214844 25.050781 149.511719 25.160156 149.871094 25.160156 C 150.265625 25.160156 150.636719 25.121094 150.984375 25.042969 C 151.332031 24.964844 151.632812 24.863281 151.890625 24.746094 L 152.367188 27.332031 C 151.890625 27.53125 151.328125 27.699219 150.671875 27.835938 C 150.019531 27.976562 149.433594 28.046875 148.917969 28.046875 C 147.804688 28.046875 146.933594 27.730469 146.300781 27.105469 C 145.667969 26.480469 145.351562 25.609375 145.351562 24.496094 Z M 145.351562 6.039062 " fill-opacity="1" fill-rule="nonzero"/><path fill="#00346a" d="M 154.300781 6.039062 L 157.570312 6.039062 L 157.570312 23.3125 C 157.570312 24.105469 157.691406 24.613281 157.929688 24.832031 C 158.167969 25.050781 158.464844 25.160156 158.820312 25.160156 C 159.21875 25.160156 159.589844 25.121094 159.9375 25.042969 C 160.28125 24.964844 160.585938 24.863281 160.84375 24.746094 L 161.316406 27.332031 C 160.84375 27.53125 160.277344 27.699219 159.621094 27.835938 C 158.96875 27.976562 158.382812 28.046875 157.867188 28.046875 C 156.757812 28.046875 155.886719 27.730469 155.25 27.105469 C 154.617188 26.480469 154.300781 25.609375 154.300781 24.496094 Z M 154.300781 6.039062 " fill-opacity="1" fill-rule="nonzero"/><path fill="#00346a" d="M 170.269531 28.046875 C 169.058594 28.046875 167.964844 27.835938 166.984375 27.410156 C 166 26.988281 165.15625 26.40625 164.441406 25.667969 C 163.726562 24.933594 163.175781 24.085938 162.789062 23.132812 C 162.402344 22.175781 162.210938 21.160156 162.210938 20.074219 C 162.210938 18.625 162.546875 17.296875 163.222656 16.089844 C 163.894531 14.886719 164.835938 13.914062 166.046875 13.179688 C 167.253906 12.445312 168.671875 12.078125 170.296875 12.078125 C 171.925781 12.078125 173.328125 12.445312 174.507812 13.179688 C 175.6875 13.917969 176.601562 14.882812 177.257812 16.082031 C 177.910156 17.277344 178.238281 18.566406 178.238281 19.941406 C 178.238281 20.175781 178.226562 20.398438 178.207031 20.601562 C 178.1875 20.808594 178.167969 20.980469 178.148438 21.117188 L 165.6875 21.117188 C 165.75 22.015625 166 22.804688 166.449219 23.480469 C 166.894531 24.15625 167.460938 24.683594 168.15625 25.066406 C 168.851562 25.445312 169.59375 25.636719 170.386719 25.636719 C 171.261719 25.636719 172.085938 25.421875 172.871094 24.984375 C 173.652344 24.546875 174.183594 23.972656 174.460938 23.257812 L 177.257812 24.0625 C 176.917969 24.8125 176.410156 25.492188 175.726562 26.097656 C 175.042969 26.703125 174.234375 27.179688 173.300781 27.527344 C 172.367188 27.871094 171.359375 28.046875 170.269531 28.046875 Z M 165.601562 18.945312 L 175 18.945312 C 174.9375 18.074219 174.6875 17.300781 174.242188 16.628906 C 173.792969 15.957031 173.230469 15.433594 172.546875 15.054688 C 171.863281 14.675781 171.101562 14.484375 170.269531 14.484375 C 169.4375 14.484375 168.710938 14.675781 168.027344 15.054688 C 167.34375 15.433594 166.78125 15.957031 166.34375 16.628906 C 165.910156 17.300781 165.660156 18.074219 165.601562 18.945312 Z M 165.601562 18.945312 " fill-opacity="1" fill-rule="nonzero"/><path fill="#00346a" d="M 181.519531 24.835938 C 181.519531 23.992188 181.589844 23.214844 181.726562 22.503906 C 181.863281 21.789062 182.109375 21.113281 182.453125 20.472656 C 182.800781 19.828125 183.285156 19.222656 183.914062 18.652344 C 184.535156 18.078125 185.335938 17.53125 186.304688 17.011719 C 187 16.609375 187.652344 16.253906 188.269531 15.941406 C 188.882812 15.632812 189.429688 15.320312 189.90625 15.011719 C 190.378906 14.699219 190.75 14.363281 191.019531 14.003906 C 191.289062 13.640625 191.421875 13.230469 191.421875 12.769531 C 191.421875 12.304688 191.300781 11.902344 191.066406 11.515625 C 190.828125 11.128906 190.46875 10.820312 189.992188 10.585938 C 189.519531 10.351562 188.941406 10.234375 188.269531 10.234375 C 187.734375 10.234375 187.242188 10.304688 186.796875 10.441406 C 186.351562 10.582031 185.945312 10.765625 185.578125 10.992188 C 185.210938 11.222656 184.878906 11.46875 184.578125 11.734375 C 184.28125 12.003906 184.023438 12.265625 183.808594 12.523438 L 181.753906 10.175781 C 181.953125 9.9375 182.265625 9.664062 182.691406 9.355469 C 183.117188 9.050781 183.632812 8.742188 184.238281 8.433594 C 184.84375 8.128906 185.53125 7.871094 186.304688 7.664062 C 187.078125 7.453125 187.921875 7.351562 188.832031 7.351562 C 190.121094 7.351562 191.222656 7.566406 192.132812 7.996094 C 193.042969 8.429688 193.746094 9.023438 194.230469 9.773438 C 194.714844 10.523438 194.957031 11.375 194.957031 12.316406 C 194.957031 13.0625 194.8125 13.714844 194.527344 14.28125 C 194.238281 14.84375 193.867188 15.34375 193.410156 15.777344 C 192.957031 16.207031 192.476562 16.582031 191.96875 16.894531 C 191.464844 17.203125 190.992188 17.480469 190.554688 17.722656 C 189.785156 18.105469 189.113281 18.457031 188.550781 18.78125 C 187.984375 19.105469 187.503906 19.421875 187.105469 19.734375 C 186.710938 20.046875 186.382812 20.367188 186.125 20.699219 C 185.867188 21.03125 185.648438 21.429688 185.472656 21.894531 L 192.140625 21.894531 L 189.648438 24.835938 L 181.515625 24.835938 Z M 181.519531 24.835938 " fill-opacity="1" fill-rule="nonzero"/><path fill="#00346a" d="M 201.113281 32.476562 L 201.113281 27.746094 L 191.980469 27.746094 L 191.980469 24.832031 L 202.152344 11.71875 L 204.382812 11.71875 L 204.382812 24.773438 L 207 24.773438 L 207 27.746094 L 204.382812 27.746094 L 204.382812 32.476562 Z M 195.3125 24.773438 L 201.46875 24.773438 L 201.46875 16.714844 Z M 195.3125 24.773438 " fill-opacity="1" fill-rule="nonzero"/></svg>